<svg id="Capa_1" enable-background="new 0 0 512 512" height="512" viewBox="0 0 512 512" width="512" xmlns="http://www.w3.org/2000/svg"><g><path d="m66.009 243.237v79.08 79.081h380.026v-79.081-79.08z" fill="#f5d996"/><path d="m10.005 401.898c58.254 58.309 65.822 60.061 110.008 60.061h272.019c44.186 0 51.754-1.752 110.008-60.061z" fill="#c0e7f8"/><path d="m116.012 461.959h280.02v40.041h-280.02z" fill="#c0e7f8"/><path d="m66.009 164.157h380.027v79.08h-380.027z" fill="#a86b59" transform="matrix(-1 0 0 -1 512.044 407.394)"/><ellipse cx="223.52" cy="124.116" fill="#ff5c7d" rx="40.003" ry="40.041"/><g><circle cx="406" cy="351" r="10"/><circle cx="110" cy="295" r="10"/><path d="m469.686 423.05c-2.47 0-4.84.91-6.67 2.56-7.52 6.73-13.82 11.761-19.281 15.37-7.871 5.19-14.062 7.811-22.082 9.351-7.07 1.335-15.643 1.619-27.973 1.629h-275.277c-10.711-.01-18.26-.203-24.672-1.089-11.011-1.601-18.362-4.74-29.102-12.44-7.67-5.55-17.001-13.74-30.252-26.53h422.619c5.51 0 10.001-4.489 10.001-10 0-5.51-4.481-9.989-9.991-10h-.01-.96v-227.745c0-5.522-4.478-10-10.001-10h-182.552c6.3-8.372 10.041-18.776 10.041-30.04 0-2.153-.152-4.269-.417-6.351 5.898-3.481 12.285-7.744 18.68-12.88 30.578-24.557 46.741-57.367 46.741-94.885 0-5.522-4.478-10-10.001-10s-10.001 4.478-10.001 10c0 31.477-13.041 58.018-38.761 78.886-4.511 3.66-9.043 6.822-13.359 9.531-8.751-14.57-24.697-24.342-42.886-24.342-27.572 0-50.003 22.448-50.003 50.041 0 11.264 3.741 21.668 10.041 30.04h-117.549c-5.523 0-10.001 4.478-10.001 10v227.743h-46.003c-4.061 0-7.691 2.42-9.241 6.17s-.7 8.021 2.17 10.9c30.142 30.09 46.354 44.99 62.695 53.68 7.88 4.16 16.181 6.79 25.382 8.03 4.791.656 9.649.974 15.001 1.13v30.191c0 5.522 4.478 10 10.001 10h280.02c5.523 0 10.001-4.478 10.001-10v-30.187c10.275-.302 19.79-1.259 29.212-4.374 6.5-2.17 12.891-5.37 19.551-9.79 6.361-4.22 13.211-9.67 21.561-17.149 4.111-3.681 4.461-10.01.78-14.12-1.9-2.11-4.61-3.33-7.452-3.33zm-393.676-169.813h360.025v138.16h-360.025zm117.508-129.121c0-16.564 13.459-30.041 30.002-30.041 10.573 0 19.88 5.51 25.225 13.809-5.524 2.484-9.09 3.647-9.236 3.694-5.26 1.661-8.182 7.27-6.528 12.533 1.343 4.271 5.286 7.005 9.538 7.005.993 0 2.004-.149 3.001-.463.327-.103 3.211-1.024 7.779-2.93-1.786 14.869-14.455 26.433-29.778 26.433-16.544 0-30.003-13.475-30.003-30.04zm-117.508 50.04h360.025v59.081h-360.025zm50.003 317.844v-20.04h260.018v20.04z"/><circle cx="501.999" cy="401.899" r="10"/><path d="m173.084 287.715c-3.908-3.905-10.241-3.901-14.143.007l-56.004 56.058c-3.904 3.907-3.901 10.239.007 14.143 1.952 1.95 4.51 2.925 7.068 2.925 2.561 0 5.122-.978 7.075-2.933l56.004-56.058c3.903-3.908 3.9-10.24-.007-14.142z"/><path d="m233.088 287.715c-3.907-3.905-10.24-3.901-14.143.007l-56.004 56.058c-3.904 3.907-3.901 10.239.007 14.143 1.952 1.95 4.51 2.925 7.068 2.925 2.561 0 5.122-.978 7.075-2.933l56.004-56.058c3.903-3.908 3.9-10.24-.007-14.142z"/><path d="m293.092 287.715c-3.908-3.905-10.241-3.901-14.143.007l-56.004 56.058c-3.904 3.907-3.901 10.239.007 14.143 1.952 1.95 4.51 2.925 7.068 2.925 2.561 0 5.122-.978 7.075-2.933l56.004-56.058c3.904-3.908 3.901-10.24-.007-14.142z"/><path d="m353.096 287.715c-3.908-3.905-10.241-3.901-14.143.007l-56.004 56.058c-3.904 3.907-3.901 10.239.007 14.143 1.952 1.95 4.51 2.925 7.068 2.925 2.561 0 5.122-.978 7.075-2.933l56.004-56.058c3.904-3.908 3.901-10.24-.007-14.142z"/><path d="m413.101 287.715c-3.908-3.905-10.241-3.901-14.143.007l-56.004 56.058c-3.904 3.907-3.901 10.239.007 14.143 1.952 1.95 4.51 2.925 7.068 2.925 2.561 0 5.122-.978 7.075-2.933l56.004-56.058c3.903-3.908 3.9-10.24-.007-14.142z"/></g></g></svg>