<svg id="Capa_1" enable-background="new 0 0 512 512" height="512" viewBox="0 0 512 512" width="512" xmlns="http://www.w3.org/2000/svg"><g><path d="m256 371.993c-64.065 0-116-51.937-116-116.006s51.935-116.006 116-116.006 116 51.937 116 116.006-51.935 116.006-116 116.006zm0-362.017c-135.86 0-246 110.145-246 246.012 0 58.733 20.59 112.655 54.93 154.958 45.1 55.552 113.94 91.054 191.07 91.054 64.67 0 123.52-24.961 167.43-65.763 48.33-44.933 78.57-109.056 78.57-180.249 0-135.867-110.14-246.012-246-246.012z" fill="#ff7d95"/><path d="m423.43 436.236c-43.91 40.802-102.76 65.764-167.43 65.764-77.13 0-145.97-35.502-191.07-91.054h5.74c21.75 1.44 22.41-8.54 44.17-7.1 21.75 1.44 21.09 11.411 42.84 12.851s22.41-8.54 44.16-7.1 21.09 11.411 42.84 12.851 22.41-8.54 44.16-7.1 21.09 11.411 42.84 12.851 22.41-8.54 44.15-7.1c21.75 1.44 21.09 11.411 42.84 12.851 0-.004 1.8.856 4.76 2.286z" fill="#b68967"/><g><path d="m506.8 204.395c-3.37-16.441-8.39-32.611-14.92-48.062-6.42-15.171-14.36-29.801-23.6-43.482-9.16-13.56-19.68-26.301-31.26-37.891-11.59-11.581-24.33-22.101-37.89-31.262-13.68-9.24-28.31-17.181-43.48-23.601-15.45-6.53-31.62-11.55-48.06-14.921-33.73-6.9-69.45-6.9-103.18 0-16.44 3.37-32.61 8.391-48.06 14.921-15.16 6.421-29.8 14.361-43.48 23.601-13.56 9.161-26.3 19.681-37.89 31.262-11.58 11.589-22.1 24.33-31.26 37.89-9.24 13.681-17.18 28.311-23.6 43.482-6.53 15.451-11.55 31.622-14.92 48.062-3.45 16.862-5.2 34.223-5.2 51.594 0 18.191 1.92 36.351 5.7 53.983 3.69 17.16 9.18 34.002 16.33 50.052 7.01 15.761 15.67 30.872 25.75 44.932 9.98 13.941 21.42 26.931 33.98 38.602 47.48 44.142 109.36 68.443 174.22 68.443h.05c19.16 0 38.27-2.13 56.8-6.33 18.02-4.091 35.64-10.161 52.36-18.061 16.42-7.761 32.07-17.311 46.52-28.392 14.35-11.01 27.56-23.571 39.28-37.342 1.73-2.03 2.56-4.62 2.35-7.281-.21-2.67-1.45-5.09-3.49-6.82-1.8-1.54-4.1-2.38-6.47-2.38-2.94 0-5.72 1.28-7.62 3.51-4.584 5.381-9.392 10.516-14.385 15.421-.667-.187-1.35-.312-2.044-.358-8.697-.576-12.503-2.635-17.322-5.242-5.554-3.005-12.465-6.744-25.518-7.608-13.047-.866-20.392 1.934-26.292 4.183-5.119 1.952-9.161 3.494-17.858 2.917-8.697-.576-12.503-2.635-17.322-5.243-5.554-3.005-12.465-6.743-25.518-7.608-13.054-.866-20.4 1.934-26.302 4.184-5.119 1.952-9.16 3.493-17.858 2.917-8.697-.576-12.503-2.635-17.322-5.243-5.554-3.005-12.465-6.743-25.518-7.608-13.055-.869-20.4 1.934-26.302 4.184-5.12 1.952-9.161 3.493-17.858 2.917s-12.503-2.635-17.322-5.243c-5.554-3.005-12.465-6.743-25.519-7.608-13.062-.866-20.407 1.935-26.311 4.184-5.12 1.95-9.162 3.494-17.859 2.916-.22-.015-.44-.022-.661-.022h-.846c-31.977-41.182-49.823-92.315-49.823-144.956 0-63.023 24.55-122.296 69.12-166.888 44.59-44.573 103.86-69.124 166.88-69.124 63.03 0 122.29 24.551 166.88 69.123 44.57 44.593 69.12 103.866 69.12 166.889 0 26.941-4.5 53.362-13.38 78.524-.89 2.52-.74 5.23.41 7.64s3.18 4.23 5.69 5.12c1.08.38 2.2.57 3.33.57 4.23 0 8.02-2.68 9.43-6.67 9.64-27.311 14.52-55.972 14.52-85.184 0-17.371-1.75-34.732-5.2-51.593zm-410.49 212.346c5.122-1.952 9.171-3.494 17.869-2.918 8.697.576 12.503 2.635 17.323 5.242 5.553 3.005 12.465 6.744 25.518 7.608 13.055.865 20.4-1.935 26.301-4.184 5.12-1.951 9.166-3.49 17.858-2.917 8.697.576 12.503 2.635 17.323 5.242 5.553 3.005 12.465 6.744 25.518 7.608 13.055.864 20.4-1.935 26.301-4.184 5.12-1.951 9.167-3.49 17.858-2.917 8.697.576 12.503 2.635 17.323 5.242 5.553 3.005 12.465 6.744 25.518 7.608 13.061.869 20.401-1.935 26.303-4.185 5.116-1.951 9.155-3.492 17.847-2.916 8.697.576 12.503 2.635 17.322 5.242 2.801 1.515 5.957 3.215 10.062 4.641-41.377 32.811-92.831 51.042-146.554 51.042-59.79 0-116.83-22.411-160.62-63.093-3.139-2.919-6.184-5.921-9.146-8.994 4.017-.864 7.219-2.079 10.076-3.167z"/><path d="m256 381.994c69.477 0 126-56.526 126-126.006s-56.523-126.006-126-126.006-126 56.526-126 126.006 56.523 126.006 126 126.006zm0-232.012c58.449 0 106 47.554 106 106.005s-47.551 106.005-106 106.005-106-47.554-106-106.005 47.551-106.005 106-106.005z"/><circle cx="469.272" cy="378.664" r="10"/><path d="m458.649 272.978-40.06-19.437c-4.967-2.41-10.951-.336-13.362 4.632-2.411 4.969-.337 10.951 4.632 13.362l40.06 19.437c1.406.682 2.893 1.005 4.358 1.005 3.71 0 7.276-2.075 9.004-5.637 2.411-4.968.337-10.951-4.632-13.362z"/><path d="m89.377 318.32c-3.137-4.545-9.365-5.687-13.91-2.551-4.545 3.137-5.688 9.364-2.551 13.91l25.187 36.5c1.94 2.812 5.063 4.321 8.239 4.321 1.958 0 3.937-.574 5.671-1.771 4.545-3.137 5.688-9.364 2.551-13.91z"/><path d="m81.528 221.686c.722.158 1.442.234 2.152.234 4.595 0 8.733-3.187 9.758-7.86l10.069-45.917c1.183-5.395-2.231-10.727-7.626-11.91-5.392-1.179-10.727 2.231-11.91 7.626l-10.069 45.917c-1.182 5.394 2.232 10.726 7.626 11.91z"/><path d="m393.732 203.623c1.539 3.957 5.318 6.379 9.323 6.379 1.205 0 2.43-.219 3.621-.682l39.447-15.333c5.147-2.001 7.699-7.796 5.698-12.944-2.001-5.147-7.795-7.698-12.944-5.698l-39.447 15.333c-5.147 2.002-7.699 7.798-5.698 12.945z"/><path d="m332.996 58.44c-4.742-2.831-10.881-1.282-13.712 3.46l-20.657 34.6c-2.831 4.742-1.282 10.881 3.46 13.712 1.606.959 3.373 1.415 5.117 1.415 3.404 0 6.724-1.74 8.596-4.875l20.657-34.6c2.83-4.741 1.281-10.881-3.461-13.712z"/><path d="m167.5 103h-52.5c-5.523 0-10 4.477-10 10s4.477 10 10 10h52.5c5.523 0 10-4.477 10-10s-4.477-10-10-10z"/><path d="m110.842 257.426c-1.96-5.164-7.734-7.762-12.897-5.801l-41.253 15.658c-5.164 1.959-7.761 7.734-5.801 12.897 1.517 3.996 5.317 6.455 9.351 6.455 1.179 0 2.378-.21 3.546-.654l41.253-15.658c5.164-1.959 7.761-7.734 5.801-12.897z"/><path d="m400.992 145.002c3.601 0 7.08-1.951 8.867-5.362 2.562-4.893.674-10.936-4.218-13.499l-42-22c-4.893-2.562-10.936-.674-13.499 4.218-2.562 4.893-.674 10.936 4.218 13.499l42 22c1.481.776 3.068 1.144 4.632 1.144z"/><path d="m231.196 46.831c-2.671-4.834-8.755-6.586-13.589-3.916-4.834 2.671-6.587 8.755-3.916 13.589l21.736 39.333c1.824 3.301 5.239 5.165 8.761 5.165 1.636 0 3.295-.402 4.828-1.25 4.834-2.671 6.587-8.755 3.916-13.589z"/><path d="m413.558 323.956-35.315 30.474c-4.181 3.608-4.646 9.922-1.038 14.104 1.978 2.292 4.768 3.467 7.575 3.467 2.314 0 4.639-.799 6.529-2.429l35.315-30.474c4.181-3.608 4.646-9.922 1.038-14.104s-9.922-4.647-14.104-1.038z"/></g></g></svg>