<?xml version="1.0" encoding="iso-8859-1"?>
<!-- Generator: Adobe Illustrator 19.0.0, SVG Export Plug-In . SVG Version: 6.00 Build 0)  -->
<svg version="1.1" id="Capa_1" xmlns="http://www.w3.org/2000/svg" xmlns:xlink="http://www.w3.org/1999/xlink" x="0px" y="0px"
	 viewBox="0 0 512 512" style="enable-background:new 0 0 512 512;" xml:space="preserve">
<g>
	<g>
		<path d="M7.515,38.103C3.364,38.103,0,41.466,0,45.617v264.517c0,4.151,3.364,7.515,7.515,7.515c4.151,0,7.515-3.364,7.515-7.515
			V45.618C15.029,41.467,11.666,38.103,7.515,38.103z"/>
	</g>
</g>
<g>
	<g>
		<path d="M39.577,38.103c-4.151,0-7.515,3.364-7.515,7.515v264.517c0,4.151,3.364,7.515,7.515,7.515
			c4.151,0,7.515-3.364,7.515-7.515V45.618C47.092,41.467,43.728,38.103,39.577,38.103z"/>
	</g>
</g>
<g>
	<g>
		<path d="M376.235,38.103c-4.151,0-7.515,3.364-7.515,7.515v264.517c0,4.151,3.364,7.515,7.515,7.515
			c4.151,0,7.515-3.364,7.515-7.515V45.618C383.75,41.466,380.386,38.103,376.235,38.103z"/>
	</g>
</g>
<g>
	<g>
		<path d="M408.297,38.103c-4.151,0-7.515,3.364-7.515,7.515v264.517c0,4.151,3.364,7.515,7.515,7.515
			c4.151,0,7.515-3.364,7.515-7.515V45.618C415.812,41.466,412.449,38.103,408.297,38.103z"/>
	</g>
</g>
<g>
	<g>
		<path d="M472.423,38.103c-4.151,0-7.515,3.364-7.515,7.515v264.517c0,4.151,3.364,7.515,7.515,7.515
			c4.151,0,7.515-3.364,7.515-7.515V45.618C479.937,41.467,476.574,38.103,472.423,38.103z"/>
	</g>
</g>
<g>
	<g>
		<path d="M504.485,38.103c-4.151,0-7.515,3.364-7.515,7.515v264.517c0,4.151,3.364,7.515,7.515,7.515
			c4.151,0,7.515-3.364,7.515-7.515V45.618C512,41.467,508.636,38.103,504.485,38.103z"/>
	</g>
</g>
<g>
	<g>
		<path d="M294.671,131.436c-2.859-3.007-7.617-3.126-10.624-0.266c-3.007,2.86-3.126,7.617-0.266,10.624
			c18.59,19.542,28.829,45.167,28.829,72.152c0,57.734-46.971,104.705-104.705,104.705S103.202,271.68,103.202,213.946
			s46.971-104.705,104.705-104.705c15.348,0,30.133,3.242,43.945,9.638c3.77,1.746,8.234,0.104,9.977-3.661
			c1.743-3.766,0.104-8.233-3.661-9.976c-15.805-7.319-32.715-11.03-50.26-11.03c-66.022,0-119.734,53.712-119.734,119.734
			S141.884,333.68,207.906,333.68S327.64,279.968,327.64,213.946C327.64,183.087,315.931,153.784,294.671,131.436z"/>
	</g>
</g>
<g>
	<g>
		<path d="M459.844,426.915l-80.157-80.156c-8.901-8.899-22.424-10.417-32.911-4.571l-26.403-26.403
			c24.427-26.952,39.329-62.687,39.329-101.84c0-51.068-25.349-96.325-64.125-123.853V45.617c0-4.151-3.364-7.515-7.515-7.515
			s-7.515,3.364-7.515,7.515v35.075c-5.483-3.002-11.168-5.677-17.033-7.995v-27.08c0-4.151-3.364-7.515-7.515-7.515
			s-7.515,3.364-7.515,7.515v22.048c-12.922-3.589-26.529-5.516-40.579-5.516c-0.167,0-0.334,0.006-0.501,0.006V45.617
			c0-4.151-3.364-7.515-7.515-7.515c-4.151,0-7.515,3.364-7.515,7.515v17.321c-5.78,0.59-11.461,1.517-17.033,2.739v-20.06
			c0-4.151-3.364-7.515-7.515-7.515c-4.151,0-7.515,3.364-7.515,7.515V69.8c-5.842,1.934-11.528,4.214-17.033,6.815V45.617
			c0-4.151-3.364-7.515-7.515-7.515c-4.151,0-7.515,3.364-7.515,7.515v38.074c0,0.355,0.033,0.7,0.08,1.042
			c-5.992,3.703-11.712,7.806-17.113,12.281V45.617c0-4.151-3.364-7.515-7.515-7.515c-4.151,0-7.515,3.364-7.515,7.515v64.125
			c0,0.48,0.05,0.949,0.136,1.405c-24.95,27.06-40.215,63.178-40.215,102.799c0,83.701,68.096,151.797,151.796,151.797
			c39.152,0,74.888-14.902,101.84-39.329l26.403,26.403c-5.847,10.487-4.329,24.01,4.571,32.911l80.157,80.157
			c7.832,7.831,20.173,10.213,30.355,5.85c3.21-1.376,6.144-3.383,8.613-5.85C470.587,455.14,470.587,437.659,459.844,426.915z
			 M207.906,350.713c-75.414,0-136.767-61.353-136.767-136.767S132.492,77.179,207.906,77.179s136.767,61.354,136.767,136.767
			S283.32,350.713,207.906,350.713z M449.216,455.257c-4.826,4.828-12.885,4.829-17.713,0L351.347,375.1
			c-4.884-4.884-4.884-12.829,0-17.713c4.82-4.822,12.891-4.822,17.713,0l80.157,80.157
			C454.1,442.428,454.1,450.373,449.216,455.257z"/>
	</g>
</g>
<g>
	<g>
		<path d="M261.314,160.54c-2.936-2.935-7.693-2.935-10.629-0.001l-96.188,96.188c-2.735,2.736-2.918,7.255-0.399,10.197
			c2.809,3.282,7.971,3.486,11.028,0.432l96.188-96.188C264.249,168.232,264.249,163.475,261.314,160.54z"/>
	</g>
</g>
<g>
	<g>
		<path d="M247.984,222.463c-12.983,0-23.546,10.563-23.546,23.546c0,12.983,10.563,23.546,23.546,23.546
			c12.983,0,23.546-10.563,23.546-23.546C271.53,233.026,260.968,222.463,247.984,222.463z M247.984,254.526
			c-4.696,0-8.517-3.82-8.517-8.517s3.82-8.517,8.517-8.517s8.517,3.821,8.517,8.517
			C256.501,250.705,252.68,254.526,247.984,254.526z"/>
	</g>
</g>
<g>
	<g>
		<path d="M167.828,158.338c-12.983,0-23.546,10.563-23.546,23.546s10.563,23.546,23.546,23.546
			c12.983,0,23.546-10.563,23.546-23.546S180.811,158.338,167.828,158.338z M167.828,190.4c-4.696,0-8.517-3.82-8.517-8.517
			s3.82-8.517,8.517-8.517s8.517,3.82,8.517,8.517S172.524,190.4,167.828,190.4z"/>
	</g>
</g>
<g>
</g>
<g>
</g>
<g>
</g>
<g>
</g>
<g>
</g>
<g>
</g>
<g>
</g>
<g>
</g>
<g>
</g>
<g>
</g>
<g>
</g>
<g>
</g>
<g>
</g>
<g>
</g>
<g>
</g>
</svg>
